# xmcd
#
# Track frame offsets:
# 150
# 11781
# 19958
# 30705
# 39559
# 48787
# 60869
# 73787
# 85431
# 94420
# 103519
# 112314
# 123175
# 134282
# 147990
# 158240
# 196521
# 204454
# 214746
# 223676
#
# Disc length: 3109 seconds
#
#
# Revision: 0
# Processed by: cddbd v1.5.2PL0 Copyright (c) Steve Scherf et al.
# Submitted via: FreeRIP 2.951 
#
DISCID=220c2314
DTITLE=Cash - The World Of Johnny Cash
DYEAR=1900
DGENRE=Country
TTITLE0=I Still Miss Someone
TTITLE1=Pickin`Time
TTITLE2=My Shoes Keep Walking Back To You
TTITLE3=I Want To Go Home
TTITLE4=I Feel Better All Over
TTITLE5=I´m So Lonesome I Could Cry
TTITLE6=Supper Time
TTITLE7=In Them Old Cottonfields Back Home
TTITLE8=Delia´s Gone
TTITLE9=One More Ride
TTITLE10=Accidentally On Purpose
TTITLE11=In The Jailhouse Now
TTITLE12=I Fortgot More Than You´ll ever Know
TTITLE13=Casey Jones
TTITLE14=Frankie´s Man Johnny
TTITLE15=The Legend Of John Henry´s Hammer
TTITLE16=When Papa Played The Dobro
TTITLE17=Busted
TTITLE18=Sing It Pretty, Sue
TTITLE19=Waiting For A Train
EXTD=
EXTT0=
EXTT1=
EXTT2=
EXTT3=
EXTT4=
EXTT5=
EXTT6=
EXTT7=
EXTT8=
EXTT9=
EXTT10=
EXTT11=
EXTT12=
EXTT13=
EXTT14=
EXTT15=
EXTT16=
EXTT17=
EXTT18=
EXTT19=
PLAYORDER=
